<svg width="27" height="28" viewBox="0 0 27 28" fill="none" xmlns="http://www.w3.org/2000/svg">
<g clip-path="url(#clip0)">
<path d="M22.1305 8.52905H19.7598V10.2263H21.3403V25.5018H5.53587V10.2263H7.11632V8.52905H4.74564C4.30884 8.52905 3.95541 8.90861 3.95541 9.3777V26.3504C3.95541 26.8195 4.30884 27.1991 4.74564 27.1991H22.1305C22.5673 27.1991 22.9207 26.8195 22.9207 26.3504V9.3777C22.9207 8.90861 22.5673 8.52905 22.1305 8.52905Z" fill="#D2CFCF"/>
<path d="M12.6478 3.29141V15.3182H14.2283V3.29141L17.6207 6.93459L18.7381 5.73457L13.4381 0.0427246L8.13803 5.73457L9.25544 6.93459L12.6478 3.29141Z" fill="#D2CFCF"/>
</g>
<defs>
<clipPath id="clip0">
<rect width="25.287" height="27.1564" fill="white" transform="translate(0.794556 0.0427246)"/>
</clipPath>
</defs>
</svg>
